<svg xmlns="http://www.w3.org/2000/svg" xmlns:xlink="http://www.w3.org/1999/xlink" width="400" zoomAndPan="magnify" viewBox="0 0 300 299.999988" height="400" preserveAspectRatio="xMidYMid meet" version="1.0"><defs><clipPath id="436736629c"><path d="M 12.574219 3.75 L 260.0625 3.75 L 260.0625 251.242188 L 12.574219 251.242188 Z M 12.574219 3.75 " clip-rule="nonzero"/></clipPath><clipPath id="0c4ec53097"><path d="M 19 209 L 291 209 L 291 296 L 19 296 Z M 19 209 " clip-rule="nonzero"/></clipPath><clipPath id="a97ec1dc22"><path d="M 40.539062 161.503906 L 294.886719 247.53125 L 259.804688 351.257812 L 5.457031 265.234375 Z M 40.539062 161.503906 " clip-rule="nonzero"/></clipPath><clipPath id="ff0814fe79"><path d="M 40.539062 161.503906 L 294.886719 247.53125 L 259.804688 351.257812 L 5.457031 265.234375 Z M 40.539062 161.503906 " clip-rule="nonzero"/></clipPath><clipPath id="bca1ff9ad1"><path d="M 26 181 L 295 181 L 295 260 L 26 260 Z M 26 181 " clip-rule="nonzero"/></clipPath><clipPath id="4eff145529"><path d="M 40.539062 161.503906 L 294.886719 247.53125 L 259.804688 351.257812 L 5.457031 265.234375 Z M 40.539062 161.503906 " clip-rule="nonzero"/></clipPath><clipPath id="5c86a6dfce"><path d="M 40.539062 161.503906 L 294.886719 247.53125 L 259.804688 351.257812 L 5.457031 265.234375 Z M 40.539062 161.503906 " clip-rule="nonzero"/></clipPath></defs><g clip-path="url(#436736629c)"><path fill="#293e91" d="M 136.316406 3.75 C 204.660156 3.75 260.0625 59.152344 260.0625 127.496094 C 260.0625 195.839844 204.660156 251.242188 136.316406 251.242188 C 67.976562 251.242188 12.574219 195.839844 12.574219 127.496094 C 12.574219 59.152344 67.976562 3.75 136.316406 3.75 " fill-opacity="1" fill-rule="nonzero"/></g><path fill="#d9d6ce" d="M 24.28125 127.496094 C 24.28125 65.621094 74.441406 15.457031 136.316406 15.457031 C 198.195312 15.457031 248.355469 65.621094 248.355469 127.496094 C 248.355469 189.371094 198.195312 239.535156 136.316406 239.535156 C 74.441406 239.535156 24.28125 189.371094 24.28125 127.496094 " fill-opacity="1" fill-rule="nonzero"/><path fill="#293e91" d="M 143.648438 68.589844 C 144.136719 71.425781 144.152344 85.585938 144.152344 85.585938 C 144.246094 91.746094 141.578125 94.847656 136.328125 95.167969 C 136.582031 96.183594 137.21875 97.269531 137.890625 98.328125 C 139.789062 99.132812 141.175781 100.125 143.148438 102.988281 C 150.417969 103.988281 158.960938 103.089844 167.367188 110.003906 C 175.609375 117.203125 179.472656 119.894531 193.382812 140.375 C 199.839844 142.828125 205.140625 149.765625 204.605469 157.601562 C 209.503906 165.070312 211.503906 174.042969 205.492188 189.246094 C 193.988281 192.457031 180.371094 186.292969 165.171875 178 L 158.453125 195.402344 L 180.902344 230.3125 C 167.238281 236.242188 152.164062 239.535156 136.316406 239.535156 C 111.921875 239.535156 89.347656 231.734375 70.949219 218.496094 L 86.964844 197.265625 L 84.710938 193.332031 L 75.050781 191.210938 C 61.480469 188.523438 48.78125 184.234375 38.367188 176.355469 C 36.210938 173.3125 37.53125 165.054688 41.792969 156.632812 C 42.242188 150.828125 45.78125 146.660156 51.785156 144.566406 L 67.625 125.367188 C 76.417969 116.285156 85.78125 110.445312 98.078125 105.550781 C 99.910156 101.847656 102.316406 99.570312 105.292969 98.726562 L 106.890625 86.085938 C 103.800781 82.570312 101.261719 77.039062 101.179688 72.257812 C 98.644531 53.527344 108.625 42.917969 125.394531 43.539062 C 131.476562 44.128906 136.007812 46.902344 139.789062 54.378906 L 151.738281 56.644531 C 155.03125 58.40625 153.261719 63.390625 143.648438 68.589844 Z M 82.785156 155.738281 L 76.144531 160.972656 C 75.226562 164.796875 74.210938 167.222656 71.445312 167.496094 L 80.753906 173.109375 L 84.679688 171.210938 L 82.785156 155.738281 " fill-opacity="1" fill-rule="nonzero"/><path fill="#ffffff" d="M 137.1875 54.265625 C 130.921875 46.46875 126.058594 45.144531 119.316406 46.578125 C 105.714844 51.039062 103.03125 58.816406 103.859375 69.460938 C 108.453125 65.449219 122.675781 57.625 137.1875 54.265625 " fill-opacity="1" fill-rule="evenodd"/><path fill="#ffffff" d="M 148.925781 58.394531 C 140.132812 63.851562 130.414062 64.890625 120.816406 63.269531 C 123.636719 61.007812 130.796875 57.980469 138.1875 56.230469 L 148.925781 58.394531 " fill-opacity="1" fill-rule="evenodd"/><path fill="#ffffff" d="M 140.582031 68.019531 C 141.3125 71.699219 143.601562 90.59375 138.046875 91.964844 C 128.707031 94.4375 121.3125 92.199219 115.867188 85.242188 C 118.007812 95.441406 130.375 97.820312 130.136719 105.402344 L 121.128906 116.078125 C 116.886719 116.746094 113.367188 116.585938 110.574219 115.601562 C 110.28125 114.25 108.816406 109.347656 107.34375 102.535156 C 107.921875 95.269531 109.523438 90.816406 109.355469 86.410156 C 110.78125 89.304688 113.484375 86.796875 113.933594 84.261719 C 108.492188 90.851562 102.78125 66.15625 112.503906 75.402344 L 115.628906 74.6875 L 118.273438 66.988281 C 123.578125 68.164062 130.304688 68.539062 140.582031 68.019531 " fill-opacity="1" fill-rule="evenodd"/><path fill="#ffffff" d="M 118.339844 119.808594 L 110.046875 119.453125 L 113.046875 129.648438 Z M 118.339844 119.808594 " fill-opacity="1" fill-rule="evenodd"/><path fill="#ffffff" d="M 188.65625 140.085938 C 183.542969 128.945312 173.582031 118.363281 161.4375 110.402344 C 153.28125 107.765625 147.019531 106.582031 142.652344 106.84375 C 142.699219 114.355469 140.988281 119.691406 137.519531 122.851562 C 134.199219 118.820312 131.828125 117.4375 130.40625 118.695312 L 120.71875 125.8125 L 129.808594 115.152344 C 131.398438 113.78125 133.707031 114.507812 136.726562 117.320312 C 139.09375 109.414062 139.09375 104.667969 136.726562 103.085938 L 111.820312 134.316406 C 107.261719 123.234375 105.019531 113.019531 105.097656 103.679688 C 102.613281 103.78125 100.769531 105.625 99.570312 109.210938 C 97.992188 112.859375 97.464844 116.882812 97.984375 121.277344 C 99.890625 117.859375 102 116.609375 104.316406 117.519531 L 97.398438 126.605469 C 94.886719 124.558594 94.554688 119.023438 96.40625 110.003906 C 82.300781 115.089844 68.597656 126.753906 55.292969 144.992188 C 64.449219 148.425781 70.578125 152.445312 73.679688 157.042969 C 76.6875 156.40625 79.320312 154.230469 81.582031 150.523438 C 81.246094 144.628906 82.554688 139.101562 85.5 133.9375 L 88.269531 171.089844 C 95.640625 166.605469 101.625 166.5625 102.464844 168.125 L 106.394531 174.800781 L 110.371094 174.964844 C 112.398438 176.574219 100.667969 195.382812 97.167969 201.5 L 119.132812 200.328125 C 126.976562 198.351562 134.027344 188.535156 140.285156 170.882812 L 155.695312 147.363281 L 158.046875 139.152344 L 161.625 150.125 L 169.335938 153.488281 C 172.6875 146.121094 180.015625 142.34375 188.65625 140.085938 " fill-opacity="1" fill-rule="evenodd"/><path fill="#ffffff" d="M 192.695312 144.441406 C 183.972656 142.886719 176.863281 146.210938 171.363281 154.421875 L 178.933594 155.988281 C 187.507812 151.785156 194.644531 151.503906 200.347656 155.136719 C 200.28125 149.914062 197.730469 146.347656 192.695312 144.441406 " fill-opacity="1" fill-rule="evenodd"/><path fill="#ffffff" d="M 72.042969 159.777344 C 66.457031 154.402344 59.828125 150.546875 52.160156 148.207031 C 48.324219 150.054688 46.316406 152.351562 46.132812 155.101562 C 55.441406 155.742188 63.160156 158.492188 66.816406 165.53125 C 69.183594 165.207031 70.929688 163.289062 72.042969 159.777344 " fill-opacity="1" fill-rule="evenodd"/><path fill="#ffffff" d="M 45.089844 158.460938 C 41.6875 163.082031 40.15625 168.65625 40.855469 172.996094 C 56.328125 185.460938 66.460938 186.222656 79.023438 188.234375 L 85.3125 188.632812 L 90.160156 193.160156 C 91.90625 193.148438 92.851562 192.199219 93 190.320312 L 88.945312 184.644531 C 89.175781 183.339844 89.578125 183.109375 90.160156 183.949219 L 94.445312 189.800781 C 95.734375 189.714844 96.777344 188.671875 97.578125 186.667969 L 93 179.71875 C 92.808594 178.351562 93.214844 177.984375 94.214844 178.621094 L 98.847656 186.4375 C 99.988281 186.230469 100.875 185.339844 101.511719 183.773438 L 97.402344 176.53125 C 97.296875 175.011719 97.664062 174.644531 98.5 175.433594 L 102.558594 181.980469 C 104.03125 182.253906 104.921875 181.367188 105.222656 179.316406 L 100.394531 170.070312 C 99.667969 168.589844 89.855469 173.855469 80.035156 176.613281 L 57.835938 163.09375 C 60.472656 163.550781 62.769531 164.726562 64.726562 166.625 C 59.101562 160.648438 52.554688 157.921875 45.089844 158.460938 " fill-opacity="1" fill-rule="evenodd"/><path fill="#293e91" d="M 170.503906 104.347656 L 185.863281 94.269531 L 215.816406 67.101562 L 226.472656 65.082031 L 225.605469 109.339844 L 219.175781 112.121094 L 205.734375 110.203125 L 178.089844 114.140625 L 100.863281 209.511719 L 80.488281 209.722656 L 170.503906 104.347656 " fill-opacity="1" fill-rule="evenodd"/><path fill="#293e91" d="M 178.40625 158.277344 L 157.566406 152.808594 L 153.847656 142.90625 C 150.695312 138.789062 145.945312 133.667969 140.496094 132.378906 L 130.148438 136.726562 C 129.476562 139.039062 129.878906 139.832031 132.433594 140.710938 C 131.6875 141.546875 131.101562 143.132812 130.417969 143.984375 C 129.03125 145.699219 127.148438 146.085938 127.128906 149.515625 C 125.535156 150.523438 124.144531 152.628906 124.339844 156.5 L 141.511719 169.011719 L 162.671875 171.757812 L 178.40625 158.277344 " fill-opacity="1" fill-rule="evenodd"/><path fill="#ffffff" d="M 200.722656 157.78125 C 207.132812 166.386719 207.832031 175.871094 202.8125 186.226562 C 191.96875 188.136719 175.644531 182.132812 153.847656 168.21875 C 147.355469 168.472656 143.070312 167.835938 140.988281 166.308594 L 127.90625 155.976562 C 127.464844 154.839844 128.09375 153.605469 129.789062 152.269531 L 136.867188 157.78125 C 137.679688 158.007812 138.035156 157.648438 137.945312 156.707031 L 130.6875 150.703125 C 130.191406 149.605469 130.714844 148.304688 132.253906 146.804688 L 139.691406 152.449219 C 140.464844 152.40625 140.761719 151.761719 140.585938 150.523438 L 133.867188 145.417969 C 133.484375 143.628906 134.003906 142.269531 135.433594 141.339844 L 143.589844 146.984375 C 144.734375 146.96875 144.976562 146.386719 144.304688 145.238281 L 136.867188 139.546875 C 136.285156 137.363281 136.984375 135.75 139.332031 135.335938 L 151.382812 143.085938 L 155.773438 154.960938 C 154.703125 157.386719 153.824219 159.390625 153.128906 160.960938 C 154.429688 161.585938 156.128906 159.882812 158.238281 155.855469 L 198.421875 163.066406 L 181.757812 157.421875 C 187.65625 155.132812 193.980469 155.25 200.722656 157.78125 " fill-opacity="1" fill-rule="evenodd"/><path fill="#d9d6ce" d="M 85.921875 207.269531 L 128.046875 158.945312 L 130.445312 160.890625 L 90.027344 207.269531 L 85.921875 207.269531 " fill-opacity="1" fill-rule="evenodd"/><path fill="#d9d6ce" d="M 173.65625 111.304688 L 150.203125 138.214844 L 147.703125 136.398438 L 172.1875 108.3125 L 185.996094 99.757812 L 217.703125 70.984375 L 223.691406 69.882812 L 219.226562 78.496094 L 215.867188 78.496094 L 187.097656 104.585938 L 173.65625 111.304688 " fill-opacity="1" fill-rule="evenodd"/><path fill="#293e91" d="M 116.007812 172.519531 L 111.746094 167.109375 C 109.949219 166.257812 108.277344 166.257812 106.730469 167.109375 L 101.878906 170.46875 L 104.277344 173.660156 L 107.582031 171.535156 L 109.878906 171.535156 L 111.417969 174.605469 L 116.007812 172.519531 " fill-opacity="1" fill-rule="evenodd"/><path fill="#293e91" d="M 130.902344 66.757812 L 125.429688 67.347656 L 122.890625 70.824219 L 127.425781 70.824219 L 132.851562 68.246094 L 130.902344 66.757812 " fill-opacity="1" fill-rule="evenodd"/><path fill="#293e91" d="M 136.800781 67.582031 L 138.398438 70 L 141.992188 70.589844 L 141.640625 67.113281 L 136.800781 67.582031 " fill-opacity="1" fill-rule="evenodd"/><path fill="#293e91" d="M 140.011719 74.609375 L 136.25 74.609375 L 133.292969 77.96875 L 136.410156 77.566406 L 137.292969 78.449219 L 138.003906 77.738281 L 140.011719 74.609375 " fill-opacity="1" fill-rule="evenodd"/><path fill="#293e91" d="M 139.769531 81.25 L 138.96875 80.445312 L 137.457031 81.007812 L 136.328125 80.363281 L 131.136719 83.40625 L 135.328125 82.4375 C 136 83.019531 137.1875 82.96875 138.886719 82.28125 L 139.53125 82.921875 L 139.769531 81.25 " fill-opacity="1" fill-rule="evenodd"/><path fill="#293e91" d="M 138.5625 84.46875 L 134.175781 85.011719 L 132.648438 86.535156 C 134.890625 86.035156 136.757812 85.925781 138.246094 86.203125 L 138.5625 84.46875 " fill-opacity="1" fill-rule="evenodd"/><path fill="#d9d6ce" d="M 95.429688 116.085938 C 81.964844 122.777344 71.25 131.53125 63.289062 142.34375 L 67.988281 151.425781 C 64.738281 149.09375 60.507812 146.949219 55.292969 144.992188 C 68.597656 126.753906 82.300781 115.089844 96.40625 110.003906 C 95.949219 112.246094 95.621094 114.273438 95.429688 116.085938 " fill-opacity="1" fill-rule="nonzero"/><path fill="#d9d6ce" d="M 109.761719 65.386719 C 107.175781 66.921875 105.144531 68.339844 103.859375 69.460938 C 103.03125 58.816406 105.714844 51.039062 119.316406 46.578125 C 121.136719 46.191406 122.820312 46.003906 124.429688 46.09375 C 113.011719 50.113281 109.757812 56.640625 109.761719 65.386719 " fill-opacity="1" fill-rule="evenodd"/><path fill="#d9d6ce" d="M 148.925781 58.394531 C 140.132812 63.851562 130.414062 64.890625 120.816406 63.269531 C 122.117188 62.230469 124.34375 61.019531 127.085938 59.851562 C 133.617188 60.671875 140.171875 60.203125 146.414062 57.886719 L 148.925781 58.394531 " fill-opacity="1" fill-rule="evenodd"/><g clip-path="url(#0c4ec53097)"><g clip-path="url(#a97ec1dc22)"><g clip-path="url(#ff0814fe79)"><path fill="#ff3131" d="M 290.53125 259.566406 L 289.664062 262.136719 C 223.898438 242.414062 146.683594 312.921875 82.828125 291.324219 C 46.382812 278.996094 31.488281 252.582031 19.429688 223.917969 L 24.277344 209.589844 C 40.070312 252.507812 80.292969 262.097656 115.082031 262.363281 C 153.042969 262.25 191.132812 255.894531 229.734375 254.429688 C 249.9375 253.859375 271.265625 252.015625 290.53125 259.566406 Z M 290.53125 259.566406 " fill-opacity="1" fill-rule="nonzero"/></g></g></g><g clip-path="url(#bca1ff9ad1)"><g clip-path="url(#4eff145529)"><g clip-path="url(#5c86a6dfce)"><path fill="#293e91" d="M 33.726562 181.644531 C 33.726562 181.644531 37.574219 258.832031 140.660156 257.589844 C 135.152344 258.558594 129.605469 259.183594 124.023438 259.472656 C 118.441406 259.761719 112.859375 259.710938 107.28125 259.316406 C 101.703125 258.925781 96.171875 258.191406 90.683594 257.121094 C 85.195312 256.050781 79.792969 254.652344 74.476562 252.921875 C 37.074219 240.269531 26.707031 202.40625 26.707031 202.40625 Z M 294.597656 247.546875 C 279.738281 243.761719 237.90625 235.988281 172.546875 256.3125 C 172.546875 256.3125 241.316406 243.535156 291.8125 255.78125 Z M 294.597656 247.546875 " fill-opacity="1" fill-rule="nonzero"/></g></g></g></svg>